<svg xmlns="http://www.w3.org/2000/svg" data-name="Layer 1" viewBox="0 0 128 160" x="0px" y="0px"><circle cx="88" cy="103" r="4"/><circle cx="10.96777" cy="25.29004" r="4"/><circle cx="88" cy="25" r="4"/><circle cx="11" cy="103" r="4"/><path d="M71.08789,78.36914a13.21645,13.21645,0,0,0,9.2002-3.53613,11.0315,11.0315,0,0,0,3.4541-8.12988V57.81055a8.19534,8.19534,0,0,0-9.47168-8.0957q-.09961.01611-.19629.041L61.56677,53.03662c.04553-.08545.097-.17523.13928-.2583,3.8291-7.52734,3.51953-14.29883-.873-19.06641a11.0315,11.0315,0,0,0-8.12988-3.4541H43.81055a8.19534,8.19534,0,0,0-8.0957,9.47168q.01611.09961.041.19629l3.28076,12.50745c-.08545-.04553-.17523-.097-.2583-.13928-7.52734-3.83105-14.2998-3.52148-19.06641.873a11.0315,11.0315,0,0,0-3.4541,8.12988v8.89258a8.19189,8.19189,0,0,0,9.47168,8.0957q.09961-.01611.19629-.041l12.50745-3.28082c-.04553.08545-.097.17529-.13928.25836-3.8291,7.52734-3.51953,14.29883.873,19.06641a11.0315,11.0315,0,0,0,8.12988,3.4541h8.89258a8.19534,8.19534,0,0,0,8.0957-9.47168q-.01611-.09961-.041-.19629L60.96338,75.56677c.08545.04553.17523.097.2583.13928A21.98373,21.98373,0,0,0,71.08789,78.36914Zm3.89551-24.7168a4.195,4.195,0,0,1,4.75879,4.1582v8.89258a7.02953,7.02953,0,0,1-2.16406,5.18848c-4.41992,4.07129-10.34668,2.38281-14.542.25a29.73056,29.73056,0,0,1-3.45673-2.19537,11.22306,11.22306,0,0,0-.18915-12.20343ZM42.71,64A7.29,7.29,0,1,1,50,71.29,7.29857,7.29857,0,0,1,42.71,64ZM40.62012,35.72754a4.19168,4.19168,0,0,1,3.19043-1.46973h8.89258a7.02953,7.02953,0,0,1,5.18848,2.16406c4.07227,4.41992,2.38379,10.34766.25,14.542a29.73056,29.73056,0,0,1-2.19537,3.45673,11.22306,11.22306,0,0,0-12.20343.18915L39.65234,39.0166A4.18907,4.18907,0,0,1,40.62012,35.72754ZM25.0166,74.34766a4.195,4.195,0,0,1-4.75879-4.1582V61.29688a7.02953,7.02953,0,0,1,2.16406-5.18848A9.29208,9.29208,0,0,1,28.92773,53.626a18.36341,18.36341,0,0,1,8.03613,2.23242,29.73056,29.73056,0,0,1,3.45673,2.19537,11.22306,11.22306,0,0,0,.18915,12.20343Zm34.36328,17.9248a4.19168,4.19168,0,0,1-3.19043,1.46973H47.29688a7.02953,7.02953,0,0,1-5.18848-2.16406c-4.07227-4.41992-2.38379-10.34766-.25-14.542a29.72369,29.72369,0,0,1,2.19543-3.45673,11.223,11.223,0,0,0,12.20337-.18915L60.34766,88.9834A4.18907,4.18907,0,0,1,59.37988,92.27246Z"/><path d="M8.19336,114H91.80664A8.203,8.203,0,0,0,100,105.80664V84.9762a16.01886,16.01886,0,0,1-4-.61133v21.44177A4.19776,4.19776,0,0,1,91.80664,110H8.19336A4.19776,4.19776,0,0,1,4,105.80664V22.19336A4.19776,4.19776,0,0,1,8.19336,18H91.80664A4.19776,4.19776,0,0,1,96,22.19336V46.6709a6.97034,6.97034,0,0,0,4,2.29034V22.19336A8.203,8.203,0,0,0,91.80664,14H8.19336A8.203,8.203,0,0,0,0,22.19336v83.61328A8.203,8.203,0,0,0,8.19336,114Z"/><path d="M50,107A43.06206,43.06206,0,0,0,89.52539,80.92035a27.41267,27.41267,0,0,1-3.12952-2.9328A39.00982,39.00982,0,1,1,84.6889,46.211a5.96654,5.96654,0,0,1,3.06592-2.77307A42.99618,42.99618,0,1,0,50,107Z"/><path d="M91.53125,47.71387a1.99972,1.99972,0,1,0-3.0625,2.57227c4.26758,5.08105,8.3125,6.71191,12.05762,6.71191,3.72168,0,7.14746-1.61035,10.2002-3.0459,5.69336-2.67773,9.40723-4.09375,13.87793.25977a2,2,0,1,0,2.791-2.86523c-6.68066-6.50879-12.89062-3.59082-18.37012-1.01465C102.89941,53.21,98.06152,55.48633,91.53125,47.71387Z"/><path d="M100.52637,69.32031c3.72168,0,7.14746-1.61035,10.2002-3.0459,5.69336-2.67871,9.40723-4.09473,13.87793.25977a2,2,0,1,0,2.791-2.86523c-6.68066-6.50879-12.89062-3.58984-18.37012-1.01465-6.126,2.87793-10.96387,5.15527-17.49414-2.61816a1.99972,1.99972,0,0,0-3.0625,2.57227C92.73633,67.68945,96.78125,69.32031,100.52637,69.32031Z"/><path d="M110.72656,77.95215c5.69336-2.67773,9.40723-4.09473,13.87793.25977a2,2,0,1,0,2.791-2.86523c-6.68066-6.50879-12.89062-3.58984-18.37012-1.01465-6.126,2.87891-10.96387,5.15527-17.49414-2.61816a1.99972,1.99972,0,1,0-3.0625,2.57227c4.26758,5.08105,8.3125,6.71191,12.05762,6.71191C104.248,80.998,107.67383,79.3877,110.72656,77.95215Z"/></svg>