<svg xmlns="http://www.w3.org/2000/svg" viewBox="0 0 64 80" x="0px" y="0px"><g><rect x="24.5" y="51.197" width="2" height="3.606" transform="matrix(0.555, -0.832, 0.832, 0.555, -32.744, 44.818)"/><rect x="27" y="47.697" width="2" height="3.606" transform="translate(-22.755 23.845) rotate(-33.69)"/><rect x="36.697" y="52" width="3.606" height="2" transform="translate(-22.933 30.257) rotate(-33.69)"/><rect x="34.197" y="48.5" width="3.606" height="2" transform="matrix(0.555, -0.832, 0.832, 0.555, -25.156, 51.996)"/><path d="M2,2V9H20v2h6V26a1.876,1.876,0,0,0,.03.243l1,4A1,1,0,0,0,28,31h1v3a1,1,0,0,0,1,1h1V56H8v6H56V56H33V35h1a1,1,0,0,0,1-1V31h1a1,1,0,0,0,.97-.757l1-4A1.876,1.876,0,0,0,38,26V11h6V9H62V2ZM20,7H4V4H20ZM54,58v2H10V58ZM33,33H31V31h2Zm2.219-4H28.781l-.5-2h7.438ZM36,25H28V23h6V21H28V19h3V17H28V11h8ZM42,9H22V4H42ZM60,7H44V4H60Z"/></g></svg>